<?xml version="1.0" encoding="utf-8"?>
<!-- Generator: Adobe Illustrator 16.0.0, SVG Export Plug-In . SVG Version: 6.00 Build 0)  -->
<!DOCTYPE svg PUBLIC "-//W3C//DTD SVG 1.1//EN" "http://www.w3.org/Graphics/SVG/1.1/DTD/svg11.dtd">
<svg version="1.1" id="Layer_1" xmlns="http://www.w3.org/2000/svg" xmlns:xlink="http://www.w3.org/1999/xlink" x="0px" y="0px"
	 width="192px" height="40px" viewBox="0 0 192 40" enable-background="new 0 0 192 40" xml:space="preserve">
<g>
	<g>
		<path fill="#FFFFFF" d="M58.651,6.237v23.895h-1.906V6.237h-8.942V4.478h19.791v1.759H58.651z"/>
		<path fill="#FFFFFF" d="M73.424,28.886c2.896,0,4.874-1.285,6.414-2.931l1.247,1.098c-1.907,2.053-4.142,3.518-7.734,3.518
			c-4.91,0-9.162-3.92-9.162-9.747V20.75c0-5.425,3.812-9.749,8.869-9.749c5.241,0,8.576,4.25,8.576,9.785v0.073
			c0,0.257,0,0.366-0.037,0.659H66.094C66.424,26.174,69.759,28.886,73.424,28.886z M79.691,19.907
			c-0.256-3.775-2.419-7.257-6.707-7.257c-3.702,0-6.561,3.116-6.89,7.257H79.691z"/>
		<path fill="#FFFFFF" d="M110.772,30.132V19.027c0-4.031-2.091-6.377-5.534-6.377c-3.152,0-5.9,2.418-5.9,6.597v10.885h-1.795
			V18.917c0-3.885-2.127-6.267-5.461-6.267c-3.336,0-5.975,2.932-5.975,6.707v10.775h-1.795V11.44h1.795v3.335
			c1.209-1.942,2.896-3.774,6.23-3.774c3.262,0,5.279,1.868,6.303,4.03c1.21-2.089,3.227-4.03,6.746-4.03
			c4.433,0,7.182,3.114,7.182,7.806v11.325H110.772z"/>
		<path fill="#FFFFFF" d="M126.097,30.57c-3.739,0-6.158-2.125-7.696-4.47v9.896h-1.795V11.44h1.795v4.178
			c1.611-2.455,3.994-4.617,7.696-4.617c4.508,0,9.089,3.628,9.089,9.711v0.073C135.186,26.87,130.604,30.57,126.097,30.57z
			 M133.243,20.786c0-4.912-3.407-8.062-7.33-8.062c-3.883,0-7.623,3.262-7.623,8.026v0.073c0,4.801,3.74,8.025,7.623,8.025
			c4.068,0,7.33-2.969,7.33-7.989V20.786z"/>
		<path fill="#FFFFFF" d="M146.513,30.57c-5.534,0-9.565-4.47-9.565-9.711v-0.073c0-5.241,4.067-9.785,9.639-9.785
			c5.534,0,9.565,4.471,9.565,9.711v0.073C156.151,26.028,152.084,30.57,146.513,30.57z M154.209,20.786
			c0-4.508-3.371-8.1-7.696-8.1c-4.434,0-7.623,3.629-7.623,8.026v0.073c0,4.508,3.372,8.1,7.696,8.1
			c4.435,0,7.623-3.63,7.623-8.026V20.786z"/>
		<path fill="#FFFFFF" d="M159.784,30.132V4.478h1.905v25.654H159.784z"/>
		<path fill="#FFFFFF" d="M190.606,30.9l-3.592-3.261c-2.163,1.834-4.985,2.931-8.283,2.931c-7.769,0-12.863-6.192-12.863-13.193
			v-0.073c0-7,5.167-13.267,12.938-13.267c7.77,0,12.863,6.193,12.863,13.194c0.037,0.037,0.037,0.037,0,0.073
			c0,3.408-1.209,6.633-3.371,9.051l3.664,3.079L190.606,30.9z M189.689,17.305c0-6.34-4.617-11.545-10.958-11.545
			c-6.34,0-10.886,5.131-10.886,11.472v0.073c0,6.341,4.619,11.544,10.96,11.544c2.674,0,5.02-0.915,6.815-2.42l-4.983-4.25
			l1.355-1.504l4.912,4.472c1.758-2.051,2.784-4.801,2.784-7.769V17.305z"/>
	</g>
</g>
<g>
	<path fill="#D5D9E0" d="M4.55,14.775c0.723-2.147,1.859-4.052,3.295-5.656l-2.59-2.584c-1.861,2.039-3.323,4.488-4.227,7.266
		L4.55,14.775z"/>
	<path fill="#C2C9D4" d="M4.085,23.547c-0.504-2.249-0.539-4.633-0.021-7.013l-3.522-0.974c-0.697,3.048-0.655,6.106,0.018,8.979
		L4.085,23.547z"/>
	<path fill="#F7941E" d="M16.489,4.049c2.252-0.505,4.634-0.541,7.013-0.021l0.973-3.522c-3.047-0.696-6.106-0.655-8.979,0.017
		L16.489,4.049z"/>
	<path fill="#EEEFF2" d="M9.138,7.831c1.63-1.455,3.533-2.573,5.596-3.284l-0.993-3.526c-2.665,0.886-5.119,2.329-7.195,4.222
		L9.138,7.831z"/>
	<path fill="#597692" d="M26.235,0.988l-0.974,3.524c2.148,0.723,4.053,1.859,5.657,3.292l2.584-2.587
		C31.464,3.356,29.011,1.892,26.235,0.988z"/>
	<path fill="#8395AB" d="M30.939,32.169c-1.631,1.452-3.535,2.574-5.599,3.285l0.993,3.524c2.666-0.885,5.119-2.327,7.197-4.225
		L30.939,32.169z"/>
	<path fill="#647D98" d="M32.207,9.1c1.455,1.631,2.573,3.535,3.285,5.596l3.525-0.994c-0.887-2.663-2.328-5.119-4.223-7.191
		L32.207,9.1z"/>
	<path fill="#6E859E" d="M35.988,16.451c0.504,2.25,0.539,4.636,0.024,7.013l3.521,0.972c0.695-3.048,0.653-6.105-0.019-8.978
		L35.988,16.451z"/>
	<path fill="#A5B1C2" d="M7.869,30.898c-1.456-1.628-2.576-3.534-3.287-5.596l-3.524,0.994c0.886,2.664,2.329,5.119,4.224,7.195
		L7.869,30.898z"/>
	<path fill="#788CA5" d="M35.526,25.224c-0.725,2.147-1.86,4.053-3.296,5.656l2.589,2.582c1.862-2.037,3.325-4.488,4.227-7.265
		L35.526,25.224z"/>
	<path fill="#8E9EB3" d="M23.584,35.951c-2.25,0.505-4.634,0.538-7.012,0.022L15.6,39.496c3.049,0.696,6.107,0.652,8.979-0.018
		L23.584,35.951z"/>
	<path fill="#9AA7BA" d="M13.84,39.01l0.972-3.522c-2.146-0.724-4.054-1.86-5.655-3.295l-2.583,2.591
		C8.613,36.642,11.063,38.105,13.84,39.01z"/>
	
		<path fill="#F7941E" stroke="#F7941E" stroke-width="0.5" stroke-linecap="round" stroke-linejoin="round" stroke-miterlimit="10" d="
		M23.259,6.281c-0.912-0.213-1.858-0.338-2.83-0.365C19.198,5.882,18,6.007,16.854,6.272l2.895,13.43L23.259,6.281z"/>
</g>
</svg>
